<?xml version="1.0" encoding="utf-8"?>
<!-- Generator: Adobe Illustrator 16.0.0, SVG Export Plug-In . SVG Version: 6.00 Build 0)  -->
<!DOCTYPE svg PUBLIC "-//W3C//DTD SVG 1.1//EN" "http://www.w3.org/Graphics/SVG/1.1/DTD/svg11.dtd">
<svg version="1.1" id="Layer_1" xmlns="http://www.w3.org/2000/svg" xmlns:xlink="http://www.w3.org/1999/xlink" x="0px" y="0px"
	 width="59.5px" height="38.5px" viewBox="0 0 59.5 38.5" enable-background="new 0 0 59.5 38.5" xml:space="preserve">
<g>
	<path fill="#FFFFFF" d="M28,28L59.5,5.25V35c-0.047,0.934-0.396,1.739-1.049,2.415c-0.654,0.677-1.355,1.039-2.102,1.085H3.15
		c-0.747-0.046-1.447-0.408-2.1-1.085C0.396,36.739,0.046,35.934,0,35V5.25L28,28z M28,0h28c1.633,0,2.287,0.257,1.961,0.77
		C57.632,1.284,56.98,1.89,56,2.59L28,22.75L3.5,2.59C2.52,1.89,1.866,1.284,1.54,0.77C1.213,0.257,1.866,0,3.5,0H28z"/>
</g>
</svg>
