<?xml version="1.0" encoding="utf-8"?>
<!-- Generator: Adobe Illustrator 16.0.0, SVG Export Plug-In . SVG Version: 6.00 Build 0)  -->
<!DOCTYPE svg PUBLIC "-//W3C//DTD SVG 1.1//EN" "http://www.w3.org/Graphics/SVG/1.1/DTD/svg11.dtd">
<svg version="1.1" id="Layer_1" xmlns="http://www.w3.org/2000/svg" xmlns:xlink="http://www.w3.org/1999/xlink" x="0px" y="0px"
	 width="100px" height="100px" viewBox="0 0 100 100" enable-background="new 0 0 100 100" xml:space="preserve">
<circle fill="#FFFFFF" cx="50" cy="50" r="50"/>
<g>
	<path fill="#333333" d="M76.437,69.041c1.4,1.586,1.54,3.033,0.42,4.34l-3.22,3.219c-1.681,1.494-3.268,1.494-4.76,0L55.576,63.301
		c-3.454,1.959-7.094,2.939-10.92,2.939c-5.974,0-11.177-2.216-15.609-6.65c-4.435-4.432-6.65-9.635-6.65-15.609
		c0-5.974,2.1-11.083,6.3-15.33c4.2-4.246,9.286-6.37,15.26-6.37s11.2,2.217,15.681,6.65c4.479,4.434,6.72,9.637,6.72,15.609
		c0,4.107-1.074,7.888-3.22,11.341L76.437,69.041z M28.977,43.98c0,4.107,1.586,7.747,4.76,10.92c3.173,3.174,6.813,4.76,10.92,4.76
		s7.63-1.47,10.57-4.41c2.939-2.939,4.41-6.485,4.41-10.64c0-4.153-1.587-7.793-4.76-10.92C51.702,30.564,48.062,29,43.956,29
		s-7.63,1.471-10.569,4.41C30.446,36.351,28.977,39.874,28.977,43.98z"/>
</g>
</svg>
